<svg width="80" height="419" viewBox="0 0 80 419" fill="none" xmlns="http://www.w3.org/2000/svg">
<line x1="41" y1="64.8093" x2="41" y2="356.809" stroke="#1DD100" stroke-width="2" stroke-dasharray="5 5"/>
<path d="M0 0.809326C-9.27438e-07 11.418 4.21427 21.5921 11.7157 29.0936C19.2172 36.5951 29.3913 40.8093 40 40.8093C50.6087 40.8093 60.7828 36.5951 68.2843 29.0936C75.7857 21.5922 80 11.418 80 0.809339L0 0.809326Z" fill="#F7F8F8"/>
<path d="M80 419C80 408.391 75.7857 398.217 68.2843 390.716C60.7828 383.214 50.6087 379 40 379C29.3914 379 19.2172 383.214 11.7157 390.716C4.21428 398.217 9.2744e-07 408.391 0 419L80 419Z" fill="#F7F8F8"/>
</svg>
