<svg width="48" height="24" viewBox="0 0 48 24" fill="none" xmlns="http://www.w3.org/2000/svg">
<path d="M2.09815e-06 -3.81596e-07C1.82261e-06 3.15172 0.620775 6.27259 1.82689 9.1844C3.033 12.0962 4.80083 14.742 7.02943 16.9706C9.25804 19.1992 11.9038 20.967 14.8156 22.1731C17.7274 23.3792 20.8483 24 24 24C27.1517 24 30.2726 23.3792 33.1844 22.1731C36.0962 20.967 38.742 19.1992 40.9706 16.9706C43.1992 14.742 44.967 12.0962 46.1731 9.1844C47.3792 6.27259 48 3.15173 48 1.90735e-06L2.09815e-06 -3.81596e-07Z" fill="white"/>
</svg>
